<?xml version="1.0" encoding="UTF-8"?>
<!DOCTYPE svg PUBLIC "-//W3C//DTD SVG 1.1//EN" "http://www.w3.org/Graphics/SVG/1.1/DTD/svg11.dtd">
<svg version="1.1" xmlns="http://www.w3.org/2000/svg" xmlns:xlink="http://www.w3.org/1999/xlink" x="0in" y="0in" width="3.45in" height="2in" viewBox="0, 0, 248.4, 144">
  <g id="Layer_1">
    <path d="M-0.011,0 L243.768,0 L243.768,141.732 L-0.011,141.732 L-0.011,0 z" fill="#FF0000"/>
    <g>
      <path d="M32.029,0 L228.187,0 L228.187,141.732 L32.029,141.732 L32.029,0 z" fill="#000000"/>
      <path d="M32.029,0 L228.187,0 L228.187,141.732 L32.029,141.732 L32.029,0 z" fill-opacity="0" stroke="#FFFFFF" stroke-width="1"/>
    </g>
    <path d="M4.405,20.335 L9.68,20.335 L9.68,121.885 L4.405,121.885 z" fill-opacity="0" stroke="#FFFFFF" stroke-width="1"/>
    <text transform="matrix(0, 0.05, -0.05, 0, 7.641, 16.793)">
      <tspan x="-19.134" y="24" font-family="Helvetica" font-size="67.012" fill="#FFFFFF">1</tspan>
    </text>
    <path d="M5.246,22.135 L8.839,22.135 L8.839,25.735 L5.246,25.735 z" fill="#D8D8D8"/>
    <path d="M4.405,20.335 L9.691,20.335 L9.691,27.535 L4.405,27.535 z" fill-opacity="0" stroke="#FFFFFF" stroke-width="0.718" id="connector0pin"/>
    <path d="M7.042,32.967 C6.03,32.967 5.209,32.159 5.209,31.163 C5.209,30.167 6.03,29.359 7.042,29.359 C8.055,29.359 8.875,30.167 8.875,31.163 C8.875,32.159 8.055,32.967 7.042,32.967" fill="#D8D8D8" id="connector1pin"/>
    <path d="M7.042,40.135 C6.03,40.135 5.209,39.353 5.209,38.388 C5.209,37.424 6.03,36.642 7.042,36.642 C8.055,36.642 8.875,37.424 8.875,38.388 C8.875,39.353 8.055,40.135 7.042,40.135 z" fill="#D8D8D8" id="connector2pin"/>
    <path d="M7.042,47.335 C6.03,47.335 5.209,46.529 5.209,45.535 C5.209,44.541 6.03,43.735 7.042,43.735 C8.055,43.735 8.875,44.541 8.875,45.535 C8.875,46.529 8.055,47.335 7.042,47.335 z" fill="#D8D8D8" id="connector3pin"/>
    <path d="M7.042,54.548 C6.03,54.548 5.209,53.742 5.209,52.748 C5.209,51.754 6.03,50.948 7.042,50.948 C8.055,50.948 8.875,51.754 8.875,52.748 C8.875,53.742 8.055,54.548 7.042,54.548 z" fill="#D8D8D8" id="connector4pin"/>
    <path d="M7.043,61.858 C6.051,61.858 5.246,61.064 5.246,60.085 C5.246,59.105 6.051,58.311 7.043,58.311 C8.035,58.311 8.839,59.105 8.839,60.085 C8.839,61.064 8.035,61.858 7.043,61.858 z" fill="#D8D8D8" id="connector5pin"/>
    <path d="M7.042,69.048 C6.051,69.048 5.247,68.244 5.247,67.253 C5.247,66.262 6.051,65.458 7.042,65.458 C8.034,65.458 8.837,66.262 8.837,67.253 C8.837,68.244 8.034,69.048 7.042,69.048 z" fill="#D8D8D8" id="connector6pin"/>
    <path d="M7.043,76.258 C6.051,76.258 5.246,75.452 5.246,74.458 C5.246,73.464 6.051,72.658 7.043,72.658 C8.035,72.658 8.839,73.464 8.839,74.458 C8.839,75.452 8.035,76.258 7.043,76.258 z" fill="#D8D8D8" id="connector7pin"/>
    <path d="M7.042,83.448 C6.051,83.448 5.247,82.644 5.247,81.653 C5.247,80.662 6.051,79.858 7.042,79.858 C8.034,79.858 8.837,80.662 8.837,81.653 C8.837,82.644 8.034,83.448 7.042,83.448 z" fill="#D8D8D8" id="connector8pin"/>
    <path d="M7.042,90.576 C6.03,90.576 5.209,89.768 5.209,88.772 C5.209,87.776 6.03,86.968 7.042,86.968 C8.055,86.968 8.875,87.776 8.875,88.772 C8.875,89.768 8.055,90.576 7.042,90.576" fill="#D8D8D8" id="connector9pin"/>
    <path d="M7.042,97.776 C6.03,97.776 5.209,96.994 5.209,96.029 C5.209,95.065 6.03,94.283 7.042,94.283 C8.055,94.283 8.875,95.065 8.875,96.029 C8.875,96.994 8.055,97.776 7.042,97.776 z" fill="#D8D8D8" id="connector10pin"/>
    <path d="M7.042,104.976 C6.03,104.976 5.209,104.17 5.209,103.176 C5.209,102.182 6.03,101.376 7.042,101.376 C8.055,101.376 8.875,102.182 8.875,103.176 C8.875,104.17 8.055,104.976 7.042,104.976 z" fill="#D8D8D8" id="connector11pin"/>
    <path d="M7.042,112.189 C6.03,112.189 5.209,111.383 5.209,110.389 C5.209,109.395 6.03,108.589 7.042,108.589 C8.055,108.589 8.875,109.395 8.875,110.389 C8.875,111.383 8.055,112.189 7.042,112.189 z" fill="#D8D8D8" id="connector12pin"/>
    <path d="M7.043,119.436 C6.051,119.436 5.246,118.642 5.246,117.663 C5.246,116.683 6.051,115.889 7.043,115.889 C8.035,115.889 8.839,116.683 8.839,117.663 C8.839,118.642 8.035,119.436 7.043,119.436 z" fill="#D8D8D8" id="connector13pin"/>
    <path d="M235.186,12.756 C232.838,12.756 230.934,10.852 230.934,8.504 C230.934,6.156 232.838,4.252 235.186,4.252 C237.535,4.252 239.438,6.156 239.438,8.504 C239.438,10.852 237.535,12.756 235.186,12.756 z" fill="#000000"/>
    <path d="M235.186,14.173 C232.055,14.173 229.517,11.635 229.517,8.504 C229.517,5.373 232.055,2.835 235.186,2.835 C238.317,2.835 240.856,5.373 240.856,8.504 C240.856,11.635 238.317,14.173 235.186,14.173 z" fill-opacity="0" stroke="#FFFFFF" stroke-width="0.5"/>
    <path d="M235.186,137.781 C232.838,137.781 230.934,135.877 230.934,133.529 C230.934,131.18 232.838,129.277 235.186,129.277 C237.535,129.277 239.438,131.18 239.438,133.529 C239.438,135.877 237.535,137.781 235.186,137.781 z" fill="#000000"/>
    <path d="M235.186,139.198 C232.055,139.198 229.517,136.66 229.517,133.529 C229.517,130.398 232.055,127.859 235.186,127.859 C238.317,127.859 240.856,130.398 240.856,133.529 C240.856,136.66 238.317,139.198 235.186,139.198 z" fill-opacity="0" stroke="#FFFFFF" stroke-width="0.5"/>
    <path d="M23.447,12.756 C21.099,12.756 19.195,10.852 19.195,8.504 C19.195,6.156 21.099,4.252 23.447,4.252 C25.796,4.252 27.699,6.156 27.699,8.504 C27.699,10.852 25.796,12.756 23.447,12.756 z" fill="#000000"/>
    <path d="M23.447,14.173 C20.316,14.173 17.778,11.635 17.778,8.504 C17.778,5.373 20.316,2.835 23.447,2.835 C26.578,2.835 29.117,5.373 29.117,8.504 C29.117,11.635 26.578,14.173 23.447,14.173 z" fill-opacity="0" stroke="#FFFFFF" stroke-width="0.5"/>
    <path d="M23.447,137.781 C21.099,137.781 19.195,135.877 19.195,133.529 C19.195,131.18 21.099,129.277 23.447,129.277 C25.796,129.277 27.699,131.18 27.699,133.529 C27.699,135.877 25.796,137.781 23.447,137.781 z" fill="#000000"/>
    <path d="M23.447,139.198 C20.316,139.198 17.778,136.66 17.778,133.529 C17.778,130.398 20.316,127.859 23.447,127.859 C26.578,127.859 29.117,130.398 29.117,133.529 C29.117,136.66 26.578,139.198 23.447,139.198 z" fill-opacity="0" stroke="#FFFFFF" stroke-width="0.5"/>
  </g>
</svg>
